<?xml version="1.0" standalone="no"?>
<!DOCTYPE svg PUBLIC "-//W3C//DTD SVG 20010904//EN"
 "http://www.w3.org/TR/2001/REC-SVG-20010904/DTD/svg10.dtd">
<svg version="1.0" xmlns="http://www.w3.org/2000/svg"
 width="600.000000pt" height="576.000000pt" viewBox="0 0 600.000000 576.000000"
 preserveAspectRatio="xMidYMid meet">

<g transform="translate(0.000000,576.000000) scale(0.100000,-0.100000)"
fill="#000000" stroke="none">
<path style=" fill: #648B17;" d="M3082 5673 l-91 -78 6 -2473 6 -2472 -54 19 c-199 70 -418 163 -564
241 -49 26 -121 65 -160 85 -65 35 -248 148 -270 167 -7 6 -12 411 -15 1158
l-5 1149 -82 -56 -83 -57 7 -1028 c3 -565 3 -1028 -2 -1028 -17 0 -206 162
-339 290 -277 269 -473 526 -617 808 -251 493 -295 980 -124 1375 115 268 360
513 647 647 173 80 416 148 593 166 88 8 119 23 50 24 -98 0 -380 -20 -484
-36 -728 -105 -1261 -492 -1434 -1041 -190 -599 44 -1338 635 -2010 613 -698
1584 -1247 2544 -1442 292 -58 460 -75 764 -75 206 0 306 5 400 18 285 39 519
108 735 216 429 214 693 540 790 975 25 112 31 378 11 514 -76 512 -356 1024
-821 1497 -153 155 -155 153 -18 -10 402 -480 618 -1047 573 -1510 -44 -461
-286 -806 -715 -1021 -95 -47 -290 -119 -377 -139 l-28 -6 0 1409 0 1410 -77
54 -78 55 -9 -1481 c-4 -815 -9 -1483 -10 -1485 -2 -1 -73 -8 -159 -14 -228
-17 -554 5 -802 55 l-59 12 3 2520 3 2520 -91 78 c-49 42 -94 77 -99 77 -4 0
-49 -35 -100 -77z"/>
</g>
</svg>
